<svg width="17" height="17" viewBox="0 0 17 17" fill="none" xmlns="http://www.w3.org/2000/svg">
<path d="M8.40772 1.70422C8.44194 1.62225 8.55806 1.62225 8.59228 1.70422L10.39 6.01059C10.4036 6.04334 10.4337 6.0664 10.4688 6.07116L15.1467 6.70428C15.2334 6.71602 15.2643 6.82555 15.1965 6.88086L11.5602 9.84819C11.5307 9.87229 11.5174 9.91108 11.526 9.94822L12.6901 14.9787C12.7108 15.0681 12.6103 15.1358 12.5352 15.0831L8.55745 12.2913C8.52297 12.2671 8.47703 12.2671 8.44255 12.2913L4.46476 15.0831C4.38969 15.1358 4.28921 15.0681 4.30989 14.9787L5.47391 9.94821C5.48251 9.91108 5.46924 9.87229 5.43971 9.8482L1.80351 6.88086C1.73573 6.82555 1.76663 6.71602 1.85332 6.70428L6.53117 6.07116C6.56634 6.0664 6.59636 6.04334 6.61003 6.01059L8.40772 1.70422Z" fill="#BFCC94" stroke="#BFCC94" stroke-width="2" stroke-miterlimit="3.3292" stroke-linecap="round" stroke-linejoin="round"/>
</svg>
